<svg width="56.736px" height="56.736px" viewBox="-8.71 0 56.736 56.736" xmlns="http://www.w3.org/2000/svg">
  <path id="bulb" d="M587.65,241.553a2.959,2.959,0,0,0,2.954,2.956h15.738a2.959,2.959,0,0,0,2.953-2.956v-9.636H587.65Zm2.544-7.093h16.558v2.408H590.194Zm0,4.952h16.558v2.141a.421.421,0,0,1-.41.41H590.6a.421.421,0,0,1-.41-.41Zm8.279-51.639a19.64,19.64,0,0,0-15.911,31.18l1.073,1.406s1,1.047,1.994,2.315a8.756,8.756,0,0,1,1.807,3.082v4.368h22.052v-4.368a8.852,8.852,0,0,1,1.806-3.082c.993-1.268,2-2.311,2-2.315L614.35,219a19.643,19.643,0,0,0-15.877-31.23Zm12.92,30.862-.451.517c-.411.457-1.026,1.159-1.647,1.954-1.067,1.449-2.25,2.884-2.35,4.65,0,.724,0,1.339,0,1.825h-7.2V215.19a5.446,5.446,0,1,0-2.543,0v12.391H589.98v-1.825c-.1-1.766-1.284-3.2-2.349-4.65-.329-.42-.656-.814-.952-1.163l.007,0-1.136-1.31a17.115,17.115,0,1,1,25.843,0Zm-12.919-5.824a2.9,2.9,0,1,1,2.9-2.9A2.9,2.9,0,0,1,598.474,212.811Z" transform="translate(-578.814 -187.773)" fill="#fff"/>
</svg>
