<?xml version="1.0" encoding="iso-8859-1"?>
<!-- Generator: Adobe Illustrator 19.0.0, SVG Export Plug-In . SVG Version: 6.00 Build 0)  -->
<svg version="1.1" id="Layer_1" xmlns="http://www.w3.org/2000/svg" xmlns:xlink="http://www.w3.org/1999/xlink" x="0px" y="0px"
	 viewBox="0 0 206.518 206.518" style="enable-background:new 0 0 206.518 206.518;" xml:space="preserve">
<g>
	<g>
		<path fill="#ffffff" d="M202.621,89.621h-23.379c-2.152,0-3.897,1.745-3.897,3.897v7.793h-35.168c9.499-7.113,15.685-18.419,15.685-31.172
			c0-0.185-0.08-0.343-0.105-0.521c6.757-1.705,11.795-7.786,11.795-15.065c0-8.594-6.992-15.586-15.586-15.586
			s-15.586,6.992-15.586,15.586c0,7.28,5.037,13.36,11.795,15.065c-0.025,0.178-0.105,0.336-0.105,0.521
			c0,16.077-12.237,29.347-27.885,30.995c-1.804-6.612-7.802-11.512-14.978-11.512c-7.241,0-13.29,4.987-15.033,11.69H31.172v-7.793
			c0-2.152-1.745-3.897-3.897-3.897H3.897C1.745,89.621,0,91.366,0,93.517v23.379c0,2.152,1.745,3.897,3.897,3.897h23.379
			c2.152,0,3.897-1.745,3.897-3.897v-7.793H66.34c-8.645,6.473-14.526,16.42-15.513,27.776c-6.792,1.681-11.861,7.782-11.861,15.086
			c0,8.594,6.992,15.586,15.586,15.586s15.586-6.992,15.586-15.586c0-7.176-4.901-13.173-11.512-14.978
			c1.649-15.648,14.918-27.885,30.995-27.885h0.553c1.743,6.703,7.792,11.69,15.033,11.69c7.241,0,13.29-4.987,15.033-11.69h55.105
			v7.793c0,2.152,1.745,3.897,3.897,3.897h23.379c2.152,0,3.897-1.745,3.897-3.897V93.517
			C206.517,91.366,204.772,89.621,202.621,89.621z M144.172,54.552c0-4.298,3.495-7.793,7.793-7.793
			c4.298,0,7.793,3.495,7.793,7.793c0,4.298-3.495,7.793-7.793,7.793C147.667,62.345,144.172,58.85,144.172,54.552z M23.379,113
			H7.793V97.414h15.586V113z M62.345,151.966c0,4.298-3.495,7.793-7.793,7.793s-7.793-3.495-7.793-7.793
			c0-4.298,3.495-7.793,7.793-7.793S62.345,147.668,62.345,151.966z M105.207,113c-4.298,0-7.793-3.495-7.793-7.793
			c0-4.298,3.495-7.793,7.793-7.793c4.298,0,7.793,3.495,7.793,7.793C113,109.505,109.505,113,105.207,113z M198.724,113h-15.586
			v-3.897v-7.793v-3.897h15.586V113z"/>
	</g>
</g>
<g>
</g>
<g>
</g>
<g>
</g>
<g>
</g>
<g>
</g>
<g>
</g>
<g>
</g>
<g>
</g>
<g>
</g>
<g>
</g>
<g>
</g>
<g>
</g>
<g>
</g>
<g>
</g>
<g>
</g>
</svg>
